# xmcd CD database file
#
# Track frame offsets:
#	150
#	13233
#	23843
#	39743
#	60255
#	74600
#	94293
#	110743
#	127440
#	145178
#	167153
#	187035
#	199273
#	218075
#	234110
#	252195
#	280380
#
# Disc length: 4440 seconds
#
# Revision: 1
# Processed by: cddbd v1.4PL0 Copyright (c) Steve Scherf et al.
# Submitted via: CDex 1.50
#
DISCID=08115611
DTITLE=Various Artist - Absolute Country [CD-2-3)
DYEAR=2003
DGENRE=Country
TTITLE0=Dolly Parton - I will always love you
TTITLE1=Jim Reeves - He'll have to go
TTITLE2=Willie Nelson - Always on my mind
TTITLE3=Suzy Boguss - Take  it to the limit
TTITLE4=Glenn Campbell - Rhinestone cowboy
TTITLE5=Mavericks - Dance the night away
TTITLE6=Alan Jackson - That 'd be allright
TTITLE7=Ry Cooder - Little sister
TTITLE8=Lonestar - When cowboys didn't dance
TTITLE9=Wilson Phillips - Release me
TTITLE10=John Michael Maontgomery - I swear
TTITLE11=Harry Nilsson - Everybody's talkin'
TTITLE12=Nanci Griffith - From a distance
TTITLE13=Joe South - Games people play
TTITLE14=Billy Swan - I can help
TTITLE15=Linda Ronstadt - You're no good
TTITLE16=Data
EXTD=YEAR: 2003
EXTT0=
EXTT1=
EXTT2=
EXTT3=
EXTT4=
EXTT5=
EXTT6=
EXTT7=
EXTT8=
EXTT9=
EXTT10=
EXTT11=
EXTT12=
EXTT13=
EXTT14=
EXTT15=
EXTT16=
PLAYORDER=
